<mxfile host="app.diagrams.net" agent="Mozilla/5.0 (Macintosh; Intel Mac OS X 10_15_7) AppleWebKit/537.36 (KHTML, like Gecko) Chrome/130.0.0.0 Safari/537.36" version="24.7.13">
  <diagram name="Page-1" id="sB4ivtMYAq3RFBaZafdZ">
    <mxGraphModel dx="2006" dy="1818" grid="1" gridSize="10" guides="1" tooltips="1" connect="1" arrows="1" fold="1" page="1" pageScale="1" pageWidth="827" pageHeight="1169" math="0" shadow="0">
      <root>
        <mxCell id="0" />
        <mxCell id="1" parent="0" />
        <mxCell id="HJSzp3PwRER_vaFQBzzB-30" value="" style="endArrow=classic;startArrow=classic;html=1;rounded=0;" edge="1" parent="1">
          <mxGeometry width="50" height="50" relative="1" as="geometry">
            <mxPoint x="439.5" y="240" as="sourcePoint" />
            <mxPoint x="439.5" y="-10" as="targetPoint" />
          </mxGeometry>
        </mxCell>
        <mxCell id="HJSzp3PwRER_vaFQBzzB-29" style="edgeStyle=orthogonalEdgeStyle;rounded=0;orthogonalLoop=1;jettySize=auto;html=1;exitX=0.5;exitY=0;exitDx=0;exitDy=0;exitPerimeter=0;entryX=0.327;entryY=0.933;entryDx=0;entryDy=0;entryPerimeter=0;" edge="1" parent="1" source="HJSzp3PwRER_vaFQBzzB-2" target="HJSzp3PwRER_vaFQBzzB-28">
          <mxGeometry relative="1" as="geometry" />
        </mxCell>
        <mxCell id="HJSzp3PwRER_vaFQBzzB-6" value="" style="shape=datastore;whiteSpace=wrap;html=1;fillColor=none;" vertex="1" parent="1">
          <mxGeometry x="189" y="97" width="449" height="339" as="geometry" />
        </mxCell>
        <mxCell id="HJSzp3PwRER_vaFQBzzB-21" style="edgeStyle=orthogonalEdgeStyle;rounded=0;orthogonalLoop=1;jettySize=auto;html=1;entryX=0.176;entryY=1.1;entryDx=0;entryDy=0;dashed=1;entryPerimeter=0;" edge="1" parent="1" target="HJSzp3PwRER_vaFQBzzB-19">
          <mxGeometry relative="1" as="geometry">
            <mxPoint x="254.5" y="240" as="sourcePoint" />
            <mxPoint x="254.5" y="90" as="targetPoint" />
            <Array as="points">
              <mxPoint x="255" y="165" />
            </Array>
          </mxGeometry>
        </mxCell>
        <mxCell id="HJSzp3PwRER_vaFQBzzB-1" value="RAW" style="shape=cylinder3;whiteSpace=wrap;html=1;boundedLbl=1;backgroundOutline=1;size=15;" vertex="1" parent="1">
          <mxGeometry x="240" y="240" width="60" height="60" as="geometry" />
        </mxCell>
        <mxCell id="HJSzp3PwRER_vaFQBzzB-2" value="INT" style="shape=cylinder3;whiteSpace=wrap;html=1;boundedLbl=1;backgroundOutline=1;size=15;" vertex="1" parent="1">
          <mxGeometry x="332" y="240" width="60" height="60" as="geometry" />
        </mxCell>
        <mxCell id="HJSzp3PwRER_vaFQBzzB-3" value="DS" style="shape=cylinder3;whiteSpace=wrap;html=1;boundedLbl=1;backgroundOutline=1;size=15;" vertex="1" parent="1">
          <mxGeometry x="418" y="240" width="60" height="60" as="geometry" />
        </mxCell>
        <mxCell id="HJSzp3PwRER_vaFQBzzB-16" style="edgeStyle=orthogonalEdgeStyle;rounded=0;orthogonalLoop=1;jettySize=auto;html=1;" edge="1" parent="1" source="HJSzp3PwRER_vaFQBzzB-4" target="HJSzp3PwRER_vaFQBzzB-15">
          <mxGeometry relative="1" as="geometry">
            <Array as="points">
              <mxPoint x="710" y="270" />
              <mxPoint x="710" y="270" />
            </Array>
          </mxGeometry>
        </mxCell>
        <mxCell id="HJSzp3PwRER_vaFQBzzB-4" value="&lt;font style=&quot;font-size: 11px;&quot;&gt;ANALYTICS&lt;/font&gt;" style="shape=cylinder3;whiteSpace=wrap;html=1;boundedLbl=1;backgroundOutline=1;size=15;" vertex="1" parent="1">
          <mxGeometry x="500" y="240" width="70" height="60" as="geometry" />
        </mxCell>
        <mxCell id="HJSzp3PwRER_vaFQBzzB-13" style="edgeStyle=orthogonalEdgeStyle;rounded=0;orthogonalLoop=1;jettySize=auto;html=1;entryX=0;entryY=0.5;entryDx=0;entryDy=0;dashed=1;" edge="1" parent="1" source="HJSzp3PwRER_vaFQBzzB-5" target="HJSzp3PwRER_vaFQBzzB-12">
          <mxGeometry relative="1" as="geometry">
            <Array as="points">
              <mxPoint x="430" y="510" />
            </Array>
          </mxGeometry>
        </mxCell>
        <mxCell id="HJSzp3PwRER_vaFQBzzB-5" value="&lt;font style=&quot;font-size: 11px;&quot;&gt;Information Schema&lt;/font&gt;" style="shape=cylinder3;whiteSpace=wrap;html=1;boundedLbl=1;backgroundOutline=1;size=15;" vertex="1" parent="1">
          <mxGeometry x="313" y="337" width="190" height="60" as="geometry" />
        </mxCell>
        <mxCell id="HJSzp3PwRER_vaFQBzzB-7" value="&lt;b&gt;INGESTION TOOL&lt;/b&gt;&lt;div&gt;&lt;i&gt;(Talend, Fivetran, Airbyte, etc.)&lt;/i&gt;&lt;/div&gt;" style="rounded=1;whiteSpace=wrap;html=1;" vertex="1" parent="1">
          <mxGeometry x="-150" y="240" width="190" height="50" as="geometry" />
        </mxCell>
        <mxCell id="HJSzp3PwRER_vaFQBzzB-10" style="edgeStyle=orthogonalEdgeStyle;rounded=0;orthogonalLoop=1;jettySize=auto;html=1;entryX=0;entryY=0;entryDx=0;entryDy=37.5;entryPerimeter=0;" edge="1" parent="1" source="HJSzp3PwRER_vaFQBzzB-7" target="HJSzp3PwRER_vaFQBzzB-1">
          <mxGeometry relative="1" as="geometry">
            <Array as="points">
              <mxPoint x="140" y="278" />
            </Array>
          </mxGeometry>
        </mxCell>
        <mxCell id="HJSzp3PwRER_vaFQBzzB-11" value="" style="labelPosition=right;align=left;strokeWidth=1;shape=mxgraph.mockup.markup.curlyBrace;html=1;shadow=0;dashed=0;strokeColor=#999999;direction=north;rotation=-90;" vertex="1" parent="1">
          <mxGeometry x="396.71" y="179.16" width="20" height="278.11" as="geometry" />
        </mxCell>
        <mxCell id="HJSzp3PwRER_vaFQBzzB-12" value="&lt;b&gt;DATA CATALOG TOOL&lt;/b&gt;&lt;div&gt;&lt;i&gt;(CastorDoc, Atlan, Metaphor, etc.)&lt;/i&gt;&lt;/div&gt;" style="rounded=1;whiteSpace=wrap;html=1;" vertex="1" parent="1">
          <mxGeometry x="510" y="490" width="210" height="40" as="geometry" />
        </mxCell>
        <mxCell id="HJSzp3PwRER_vaFQBzzB-17" style="edgeStyle=orthogonalEdgeStyle;rounded=0;orthogonalLoop=1;jettySize=auto;html=1;entryX=1;entryY=0.5;entryDx=0;entryDy=0;dashed=1;" edge="1" parent="1" source="HJSzp3PwRER_vaFQBzzB-15" target="HJSzp3PwRER_vaFQBzzB-12">
          <mxGeometry relative="1" as="geometry">
            <Array as="points">
              <mxPoint x="900" y="510" />
            </Array>
          </mxGeometry>
        </mxCell>
        <mxCell id="HJSzp3PwRER_vaFQBzzB-15" value="&lt;b&gt;ANALYTICS TOOL&lt;/b&gt;&lt;div&gt;&lt;i&gt;(Tableau, PowerBI, Qlik, etc.)&lt;/i&gt;&lt;/div&gt;" style="rounded=1;whiteSpace=wrap;html=1;" vertex="1" parent="1">
          <mxGeometry x="800" y="250" width="190" height="50.5" as="geometry" />
        </mxCell>
        <mxCell id="HJSzp3PwRER_vaFQBzzB-27" style="edgeStyle=orthogonalEdgeStyle;rounded=0;orthogonalLoop=1;jettySize=auto;html=1;dashed=1;" edge="1" parent="1" source="HJSzp3PwRER_vaFQBzzB-19" target="HJSzp3PwRER_vaFQBzzB-4">
          <mxGeometry relative="1" as="geometry" />
        </mxCell>
        <mxCell id="HJSzp3PwRER_vaFQBzzB-22" style="edgeStyle=orthogonalEdgeStyle;rounded=0;orthogonalLoop=1;jettySize=auto;html=1;entryX=0.528;entryY=1;entryDx=0;entryDy=0;dashed=1;entryPerimeter=0;" edge="1" parent="1" target="HJSzp3PwRER_vaFQBzzB-19">
          <mxGeometry relative="1" as="geometry">
            <mxPoint x="342" y="242" as="sourcePoint" />
            <mxPoint x="342" y="92" as="targetPoint" />
            <Array as="points" />
          </mxGeometry>
        </mxCell>
        <mxCell id="HJSzp3PwRER_vaFQBzzB-19" value="&lt;b&gt;DATA TRANSFORMATION TOOL&lt;/b&gt;&lt;div&gt;&lt;i&gt;(DBT, AWS Glue, Azure Data Factory, etc.)&amp;nbsp;&lt;/i&gt;&lt;/div&gt;" style="rounded=1;whiteSpace=wrap;html=1;" vertex="1" parent="1">
          <mxGeometry x="210" y="31" width="250" height="30" as="geometry" />
        </mxCell>
        <mxCell id="HJSzp3PwRER_vaFQBzzB-23" style="edgeStyle=orthogonalEdgeStyle;rounded=0;orthogonalLoop=1;jettySize=auto;html=1;entryX=0.88;entryY=1.1;entryDx=0;entryDy=0;dashed=1;entryPerimeter=0;exitX=0.05;exitY=0.15;exitDx=0;exitDy=0;exitPerimeter=0;" edge="1" parent="1" source="HJSzp3PwRER_vaFQBzzB-3">
          <mxGeometry relative="1" as="geometry">
            <mxPoint x="420" y="240" as="sourcePoint" />
            <mxPoint x="420" y="64" as="targetPoint" />
            <Array as="points" />
          </mxGeometry>
        </mxCell>
        <mxCell id="HJSzp3PwRER_vaFQBzzB-24" style="edgeStyle=orthogonalEdgeStyle;rounded=0;orthogonalLoop=1;jettySize=auto;html=1;entryX=0.325;entryY=0.44;entryDx=0;entryDy=0;entryPerimeter=0;dashed=1;exitX=0.348;exitY=1;exitDx=0;exitDy=0;exitPerimeter=0;" edge="1" parent="1" source="HJSzp3PwRER_vaFQBzzB-19">
          <mxGeometry relative="1" as="geometry">
            <mxPoint x="297" y="70" as="sourcePoint" />
            <mxPoint x="296.9250000000002" y="250.15999999999997" as="targetPoint" />
          </mxGeometry>
        </mxCell>
        <mxCell id="HJSzp3PwRER_vaFQBzzB-25" style="edgeStyle=orthogonalEdgeStyle;rounded=0;orthogonalLoop=1;jettySize=auto;html=1;entryX=0.325;entryY=0.44;entryDx=0;entryDy=0;entryPerimeter=0;dashed=1;exitX=0.66;exitY=0.967;exitDx=0;exitDy=0;exitPerimeter=0;" edge="1" parent="1" source="HJSzp3PwRER_vaFQBzzB-19">
          <mxGeometry relative="1" as="geometry">
            <mxPoint x="375" y="96" as="sourcePoint" />
            <mxPoint x="374.9250000000002" y="243.15999999999997" as="targetPoint" />
          </mxGeometry>
        </mxCell>
        <mxCell id="HJSzp3PwRER_vaFQBzzB-26" style="edgeStyle=orthogonalEdgeStyle;rounded=0;orthogonalLoop=1;jettySize=auto;html=1;entryX=0.325;entryY=0.44;entryDx=0;entryDy=0;entryPerimeter=0;dashed=1;exitX=1;exitY=1;exitDx=0;exitDy=0;" edge="1" parent="1" source="HJSzp3PwRER_vaFQBzzB-19">
          <mxGeometry relative="1" as="geometry">
            <mxPoint x="456" y="89" as="sourcePoint" />
            <mxPoint x="455.9250000000002" y="243.15999999999997" as="targetPoint" />
            <Array as="points">
              <mxPoint x="456" y="61" />
            </Array>
          </mxGeometry>
        </mxCell>
        <mxCell id="HJSzp3PwRER_vaFQBzzB-28" value="&lt;b&gt;ML TOOL&lt;/b&gt;&lt;div&gt;&lt;i&gt;(AWS Sage Maker, DataIku, Microsoft ML, etc.)&amp;nbsp;&lt;/i&gt;&lt;/div&gt;" style="rounded=1;whiteSpace=wrap;html=1;" vertex="1" parent="1">
          <mxGeometry x="277.57" y="-37" width="258.29" height="30" as="geometry" />
        </mxCell>
        <mxCell id="HJSzp3PwRER_vaFQBzzB-31" value="" style="labelPosition=right;align=left;strokeWidth=1;shape=mxgraph.mockup.markup.curlyBrace;html=1;shadow=0;dashed=0;strokeColor=#999999;direction=north;rotation=-90;" vertex="1" parent="1">
          <mxGeometry x="431.95" y="299.05" width="20" height="540" as="geometry" />
        </mxCell>
        <mxCell id="HJSzp3PwRER_vaFQBzzB-32" value="&lt;b&gt;DATA GOVERNANCE TOOL&lt;/b&gt;&lt;div&gt;&lt;i&gt;(Immuta, Collibra, Unity catalog, etc.)&lt;/i&gt;&lt;/div&gt;" style="rounded=1;whiteSpace=wrap;html=1;" vertex="1" parent="1">
          <mxGeometry x="330" y="585" width="206.95" height="50" as="geometry" />
        </mxCell>
      </root>
    </mxGraphModel>
  </diagram>
</mxfile>
